<?xml version="1.0" encoding="UTF-8" standalone="no"?><!--suppress ALL -->
<svg xmlns:dc="http://purl.org/dc/elements/1.1/" xmlns:cc="http://creativecommons.org/ns#"
    xmlns:rdf="http://www.w3.org/1999/02/22-rdf-syntax-ns#" xmlns="http://www.w3.org/2000/svg"
    xmlns:sodipodi="http://sodipodi.sourceforge.net/DTD/sodipodi-0.dtd"
    xmlns:inkscape="http://www.inkscape.org/namespaces/inkscape" id="SVGRoot" version="1.1"
    viewBox="0 0 108 108" sodipodi:docname="device.svg"
    inkscape:version="0.92.4 (5da689c313, 2019-01-14)">
    <metadata id="metadata1595">
        <rdf:RDF>
            <cc:Work rdf:about="">
                <dc:format>image/svg+xml</dc:format>
                <dc:type rdf:resource="http://purl.org/dc/dcmitype/StillImage" />
                <dc:title></dc:title>
            </cc:Work>
        </rdf:RDF>
    </metadata>
    <sodipodi:namedview pagecolor="#ffffff" bordercolor="#666666" borderopacity="1"
        objecttolerance="10" gridtolerance="10" guidetolerance="10" inkscape:pageopacity="0"
        inkscape:pageshadow="2" inkscape:window-width="1920" inkscape:window-height="1017"
        id="namedview1593" showgrid="false" inkscape:snap-page="true" inkscape:zoom="2.1851852"
        inkscape:cx="54" inkscape:cy="54" inkscape:window-x="-8" inkscape:window-y="-8"
        inkscape:window-maximized="1" inkscape:current-layer="SVGRoot" />
    <defs id="defs1576">
        <linearGradient id="linearGradient1930" x2="256" y1="256"
            gradientTransform="matrix(.42188 0 0 .42188 -2.1094e-6 -2.1094e-6)"
            gradientUnits="userSpaceOnUse">
            <stop stop-color="#bf0574" offset="0" id="stop1571" />
            <stop stop-color="#ff6910" offset="1" id="stop1573" />
        </linearGradient>
    </defs>
    <g display="none" id="g1580">
        <rect width="108" height="108" fill="url(#linearGradient1930)" stroke-width=".42188"
            id="rect1578" />
    </g>
    <g id="g1590" transform="matrix(2.25,0,0,2.25,-67.499999,-67.499999)">
        <g transform="matrix(2,0,0,2,30,30)" id="g1588">
            <path d="M 0,0 H 24 V 24 H 0 Z" id="path1584" inkscape:connector-curvature="0"
                style="fill:none" />
            <path
                d="M 17,1.01 7,1 C 5.9,1 5.01,1.9 5.01,3 v 18 c 0,1.1 0.89,2 1.99,2 h 10 c 1.1,0 2,-0.9 2,-2 V 3 C 19,1.9 18.1,1.01 17,1.01 Z M 17,19 H 7 V 5 h 10 z m -4.2,-5.78 v 1.75 L 16,11.98 12.8,9 v 1.7 c -3.11,0.43 -4.35,2.56 -4.8,4.7 1.11,-1.5 2.58,-2.18 4.8,-2.18 z"
                id="path1586" inkscape:connector-curvature="0" style="fill:#ffffff" />
        </g>
    </g>
</svg>
